<?xml version="1.0" standalone="no"?>
<!DOCTYPE svg PUBLIC "-//W3C//DTD SVG 20010904//EN"
 "http://www.w3.org/TR/2001/REC-SVG-20010904/DTD/svg10.dtd">
<svg version="1.0" xmlns="http://www.w3.org/2000/svg"
 width="64.000000pt" height="64.000000pt" viewBox="0 0 64.000000 64.000000"
 preserveAspectRatio="xMidYMid meet">

<g transform="translate(0.000000,64.000000) scale(0.100000,-0.100000)"
fill="#000000" stroke="none">
<path d="M240 581 c-17 -33 -12 -72 10 -78 31 -8 24 -23 -11 -23 -20 0 -40
-10 -60 -29 l-29 -29 0 -139 c0 -127 -2 -139 -20 -151 -26 -16 -26 -46 0 -72
18 -18 33 -20 190 -20 157 0 172 2 190 20 26 26 26 56 0 72 -18 12 -20 24 -20
151 l0 139 -29 29 c-20 19 -40 29 -60 29 -35 0 -42 15 -11 23 22 6 27 45 10
78 -9 16 -22 19 -80 19 -58 0 -71 -3 -80 -19z m148 -33 l3 -28 -70 0 c-68 0
-71 1 -71 23 0 34 8 38 75 35 57 -3 60 -4 63 -30z m-38 -58 c0 -5 -13 -10 -30
-10 -16 0 -30 5 -30 10 0 6 14 10 30 10 17 0 30 -4 30 -10z m97 -52 c22 -20
23 -28 23 -160 0 -131 -1 -138 -20 -138 -18 0 -20 8 -22 137 l-3 138 -105 0
-105 0 -3 -138 c-2 -129 -4 -137 -22 -137 -19 0 -20 7 -20 137 0 127 2 138 22
160 20 21 30 23 127 23 94 0 107 -2 128 -22z m-37 -78 l0 -40 -90 0 -90 0 0
40 0 40 90 0 90 0 0 -40z m0 -140 l0 -80 -90 0 -90 0 0 80 0 80 90 0 90 0 0
-80z m96 -115 c4 -8 1 -22 -6 -30 -18 -22 -342 -22 -360 0 -7 8 -10 22 -6 30
8 22 364 22 372 0z"/>
</g>
</svg>
